PathFileType	3	(X/Y/Z)	D:\minhoCalibration\240510\subject2_KPNP\preferred\preferred14.trc
DataRate	CameraRate	NumFrames	NumMarkers	Units	OrigDataRate	OrigDataStartFrame	OrigNumFrames
200.0	200.0	27	10	mm	200.0	330	191	
Frame#	Time	Left_Ankle_Outer1			Left_Ankle_Inner1			Left_Knee_Outer1			Left_Knee_Inner1			Left_Wrist1			Right_Wrist1			Right_Knee_Inner1			Right_Knee_Outer1			Right_Ankle_Inner1			Right_Ankle_Outer1			
		X1	Y1	Z1	X2	Y2	Z2	X3	Y3	Z3	X4	Y4	Z4	X5	Y5	Z5	X6	Y6	Z6	X7	Y7	Z7	X8	Y8	Z8	X9	Y9	Z9	X10	Y10	Z10	
330	1.64	-642.38824	90.101624	-789.86542	-666.72223	91.079964	-738.5144	-435.01108	496.60782	-703.2818	-522.85852	480.38983	-648.45074	-525.84894	929.24359	-828.14691	-861.61627	964.59229	-871.04736	-932.68994	455.36746	-864.51007	-994.16205	506.43002	-918.35974	-874.98798	134.52386	-1110.6653	-946.83691	168.14413	-1171.9189
331	1.645	-641.01282	90.858727	-790.7063	-666.56348	92.201782	-737.75153	-433.34909	497.24026	-701.5246	-521.05029	480.86102	-648.93884	-522.03607	930.72736	-827.19867	-857.92841	965.94031	-862.59393	-935.29999	457.25571	-851.30859	-996.96588	509.74423	-905.10028	-877.22748	141.25957	-1104.916	-949.03186	175.95863	-1165.3931
332	1.65	-640.75354	90.855042	-790.81927	-666.07129	92.447342	-738.47906	-431.83044	497.66318	-700.81134	-519.1853	481.92316	-647.43506	-516.97461	932.72925	-826.73358	-854.05328	966.89874	-857.27612	-937.7915	459.80591	-838.15442	-999.07288	513.07257	-891.93787	-879.62543	148.448	-1098.5221	-951.60474	184.31964	-1158.0454
333	1.655	-640.19965	90.745857	-791.48633	-665.20612	91.791054	-740.3728	-430.43765	497.62531	-701.23438	-516.80267	482.00314	-648.35706	-512.62006	934.94141	-825.65466	-850.18274	968.44147	-850.19891	-940.56293	463.48398	-823.78131	-1002.0604	516.38672	-876.13593	-881.8761	156.00163	-1091.6704	-954.43115	193.00429	-1149.8505
334	1.66	-639.74139	90.588936	-792.17102	-665.39557	92.561249	-740.0401	-429.06567	497.21127	-702.57758	-514.34442	481.92868	-648.52557	-507.78229	937.47766	-825.1062	-846.0885	969.87555	-843.76013	-942.61029	467.20908	-808.78192	-1004.2278	519.97351	-860.08069	-885.09082	163.84851	-1083.5724	-957.2334	202.63753	-1140.907
335	1.665	-639.26294	90.370621	-792.82776	-665.1665	92.689812	-740.59955	-427.7804	496.39893	-704.41693	-511.67273	481.27646	-649.05286	-503.14462	939.87067	-824.00916	-841.72186	971.85718	-837.27643	-943.50134	470.8237	-793.01294	-1005.2669	524.00067	-844.17621	-887.0481	172.24521	-1075.4933	-959.99469	212.65836	-1131.5032
336	1.67	-638.81891	90.187111	-793.46295	-664.31555	90.647591	-744.33655	-426.36679	495.64398	-706.70343	-509.138	480.79468	-648.67688	-498.61932	942.42169	-823.03986	-837.21954	973.92432	-830.25903	-944.48328	475.3912	-776.98529	-1005.7138	529.08765	-827.99469	-890.56659	180.86617	-1066.4004	-962.80298	223.31386	-1121.4662
337	1.675	-638.22247	89.9972	-794.10168	-664.52673	93.295395	-740.40656	-424.90576	494.84155	-709.06854	-506.34659	479.48288	-651.11322	-494.03424	944.98328	-822.06738	-832.82043	976.01239	-822.41132	-944.06946	479.90552	-760.11072	-1005.92	533.35931	-811.12341	-892.95538	190.33092	-1056.9448	-965.32684	234.31857	-1110.7041
338	1.68	-637.72882	89.937233	-794.64667	-663.84625	92.993912	-742.56555	-423.50513	493.98932	-711.49506	-503.93988	478.80719	-652.5321	-489.70941	947.59521	-820.95447	-828.32715	978.53479	-816.02966	-943.54688	485.26083	-743.42078	-1005.1865	539.34814	-794.25201	-894.24255	200.69597	-1046.8779	-967.52307	245.91983	-1099.3599
339	1.685	-637.33246	89.986244	-795.10254	-664.01788	93.49292	-741.97357	-421.97824	493.19348	-713.79199	-501.97513	478.63821	-653.284	-485.30969	950.26953	-819.45825	-823.89355	981.08807	-810.16229	-941.94592	490.4176	-726.24615	-1004.8383	544.86591	-775.77496	-896.48499	211.32407	-1036.4945	-969.44061	257.95825	-1087.7927
340	1.69	-637.00726	90.114906	-795.49866	-662.47321	92.724121	-744.43732	-420.55203	492.50162	-716.01996	-500.21173	478.38654	-655.28271	-481.08813	952.48065	-819.81085	-819.56354	983.95404	-803.83173	-939.74036	495.97	-708.84894	-1002.9114	551.06384	-758.12903	-896.89758	223.08665	-1026.2133	-971.06525	270.21979	-1075.7437
341	1.695	-636.74982	90.140793	-795.77228	-663.29352	94.148895	-742.28857	-419.2103	491.97031	-718.34619	-498.76685	478.27069	-657.59003	-476.74594	954.90356	-819.61627	-815.22705	987.12604	-797.10437	-937.19434	501.96756	-691.36633	-1001.5444	557.08624	-739.13281	-896.85608	235.57314	-1016.0583	-972.21063	283.01495	-1063.3615
342	1.7	-636.52997	90.179665	-795.9425	-662.84528	94.524864	-742.4953	-418.08307	491.49011	-720.9267	-497.50443	478.24808	-660.15381	-472.30756	957.45831	-819.29553	-810.78796	990.5097	-790.25732	-933.89246	507.87061	-673.98865	-998.92261	563.47357	-720.84155	-895.92889	249.34818	-1006.1786	-972.71533	296.51221	-1050.7429
343	1.705	-636.35297	90.19902	-796.12866	-662.01483	94.237427	-744.17511	-417.0401	491.2211	-723.81702	-496.3298	478.43616	-662.82684	-468.26898	959.56305	-820.3645	-806.10822	993.99152	-783.90692	-930.25397	514.44678	-656.25244	-995.64581	570.62769	-702.87604	-893.73834	263.96497	-995.50458	-972.22467	310.5658	-1037.8652
344	1.71	-636.1355	90.271881	-796.38788	-661.70264	94.568161	-744.43372	-416.3595	490.98889	-727.18774	-495.3407	478.8215	-665.20221	-464.19388	961.88684	-821.34906	-801.4256	997.70813	-775.77637	-925.7428	520.68024	-638.87915	-993.24615	577.0274	-682.44916	-891.04053	279.02267	-984.21857	-970.74579	325.28601	-1024.6248
345	1.715	-635.92401	90.412193	-796.89874	-660.89294	94.243843	-745.67908	-415.83481	490.96573	-731.1142	-493.82812	479.20682	-668.68787	-460.26453	964.04419	-822.89709	-796.57928	1001.6801	-768.17719	-920.63672	527.01526	-621.34088	-988.78076	584.77942	-663.47766	-887.75983	294.38492	-972.20087	-968.25085	340.47549	-1011.1791
346	1.72	-635.82379	90.645309	-797.51099	-660.88416	95.268806	-745.18774	-416.28476	490.82306	-735.57666	-492.27344	479.82922	-671.83374	-456.5488	966.25073	-824.73859	-791.45105	1005.8522	-760.15369	-914.58618	533.00464	-604.45984	-984.44617	592.42932	-643.47388	-884.01715	310.04144	-959.94995	-964.89844	356.16483	-997.47131
347	1.725	-635.55365	90.831642	-797.79858	-660.52399	95.758293	-745.59973	-416.216	491.24042	-740.53436	-490.61768	480.47562	-675.14532	-453.36499	968.12445	-827.02216	-786.22272	1010.3455	-751.98505	-908.44037	540.49579	-586.41949	-979.10687	599.90308	-624.25836	-879.40497	326.06027	-947.72046	-961.30542	372.32718	-983.38483
348	1.73	-635.31293	91.125526	-798.15576	-659.63989	95.49868	-747.13629	-416.85739	491.86841	-745.72656	-488.89099	481.24832	-678.52911	-450.15448	970.5343	-829.59302	-780.61591	1015.0243	-743.66895	-901.29553	547.62927	-568.61816	-973.40448	608.56665	-602.6969	-874.58313	342.54794	-935.21722	-957.6109	388.73923	-968.81628
349	1.735	-635.13843	91.463303	-798.48608	-659.87756	97.501915	-744.56824	-417.92596	492.63666	-751.12787	-487.41861	482.06204	-682.01123	-447.15973	972.57019	-832.66821	-774.27405	1019.8718	-734.95618	-893.45923	554.97717	-550.81158	-966.20709	617.31116	-583.10168	-870.04626	359.25824	-922.56641	-954.01965	405.46024	-953.86145
350	1.74	-634.7356	91.636856	-798.49725	-659.5918	98.256699	-745.0235	-419.26761	493.70557	-756.60492	-486.17209	482.88416	-685.57391	-444.70123	974.28198	-836.08563	-767.9621	1024.6055	-726.3714	-884.79089	562.83356	-532.84027	-958.466	626.30267	-562.91479	-865.26544	376.52539	-909.75439	-950.28754	422.46243	-938.40967
351	1.745	-634.6601	92.351616	-799.12695	-658.50592	98.185379	-747.03601	-420.73529	495.03363	-761.94379	-485.26291	483.85107	-689.12305	-442.90094	975.91327	-839.63159	-761.52631	1029.6831	-717.71344	-875.81097	571.4129	-514.7439	-949.8562	635.69769	-542.47748	-861.21857	393.90259	-896.20624	-946.94366	439.77124	-922.57861
352	1.75	-634.50531	92.922089	-799.49292	-657.96289	98.986816	-747.43243	-422.41843	496.39542	-767.06512	-484.68591	484.89029	-692.64062	-441.4223	977.52374	-843.51343	-754.73657	1034.6406	-709.18762	-865.71826	580.12866	-496.37897	-940.60742	645.63776	-521.29956	-857.3418	411.41708	-882.28387	-943.77771	457.34793	-906.11023
353	1.755	-634.36609	93.644547	-800.04584	-658.0036	100.58968	-746.08759	-424.1123	497.90448	-771.96271	-484.15164	485.92419	-696.32806	-440.29477	978.60339	-847.89807	-747.66949	1039.6268	-700.82257	-854.49243	588.86725	-477.99399	-930.66437	655.32452	-500.72122	-853.90057	429.3208	-867.89539	-940.89032	475.15213	-888.95526
354	1.76	-634.19977	94.445412	-800.5791	-656.8855	100.5242	-748.29578	-425.79901	499.39746	-776.51508	-483.95364	487.11484	-699.89423	-439.85208	980.0119	-852.06146	-740.34094	1044.6868	-692.65582	-843.50323	598.99298	-458.71002	-919.63464	665.96295	-480.00034	-850.3924	447.33295	-852.78668	-937.61926	493.62119	-872.29059
355	1.765	-634.12964	95.198997	-801.12555	-656.37427	101.35882	-748.71393	-426.82019	501.19687	-781.25635	-484.2937	488.49661	-703.18744	-440.349	980.93555	-856.16541	-732.89075	1049.8158	-684.86646	-830.77283	608.3158	-441.2587	-906.67047	676.90314	-459.85699	-846.95221	464.99173	-837.72589	-934.34723	511.32321	-853.39557
356	1.77	-633.97382	96.043739	-801.51923	-656.18597	103.32516	-747.08118	-428.98447	502.2757	-784.77142	-484.79855	489.77423	-706.26788	-440.83963	981.96118	-860.49231	-725.37756	1054.9733	-677.5094	-817.88818	618.41663	-423.60175	-893.92981	687.74792	-440.02853	-843.40723	482.68576	-821.79706	-931.80206	529.84766	-834.39642
